<svg xmlns="http://www.w3.org/2000/svg" width="140" height="38" fill="none"><g clip-path="url(#a)"><path fill="#141414" d="M22.394 31.09a1.72 1.72 0 0 1-.59.116l-2.233.069h-1.92a19.552 19.552 0 0 1-5.554 4.283 10.28 10.28 0 0 1-4.814 1.06 9.877 9.877 0 0 1-3.008-.553 7.17 7.17 0 0 1-2.395-1.382 5.61 5.61 0 0 1-1.492-2.015 4.884 4.884 0 0 1-.348-2.533 6.533 6.533 0 0 1 1.308-3.547 5.632 5.632 0 0 1 2.314-1.704 6.135 6.135 0 0 1 2.58-.369c.688.04 1.368.163 2.025.369.411.171.756.47.983.852.184.3.261.653.22 1.002a1.149 1.149 0 0 1-.486.748 1.08 1.08 0 0 1-1.03 0 2.697 2.697 0 0 0-1.92-.138 3.044 3.044 0 0 0-1.389.956c-.355.457-.59.995-.682 1.566a3.187 3.187 0 0 0 .127 1.716c.222.574.629 1.06 1.157 1.381.7.409 1.505.6 2.314.553a7.956 7.956 0 0 0 4.894-2.119c-.67 0-1.087-.207-1.25-.506a1.01 1.01 0 0 1 0-1.002c.24-.413.567-.767.961-1.037.43-.31.94-.493 1.47-.53h2.07a61.582 61.582 0 0 0 4.837-6.194 354.567 354.567 0 0 0 4.917-7.359c1.632-2.498 3.124-4.963 4.628-7.38A88.731 88.731 0 0 1 34.531.897a2.177 2.177 0 0 1 1.342-.84 2.231 2.231 0 0 1 1.389.126 1.549 1.549 0 0 1 .821.956 1.777 1.777 0 0 1-.312 1.508c-1.215 1.877-2.407 3.938-3.598 6.195-1.192 2.257-2.314 4.537-3.298 6.829-.983 2.291-1.944 4.514-2.684 6.644a46.348 46.348 0 0 0-1.724 5.665 14.103 14.103 0 0 0-.463 3.973c.081 1.013.451 1.509 1.157 1.509.316-.012.63-.074.926-.185a8.973 8.973 0 0 0 1.157-.495c.402-.223.788-.473 1.157-.748.38-.269.736-.57 1.064-.898l1.493-1.509c.434-.465.844-.954 1.226-1.462a1.04 1.04 0 0 1 .868-.496c.36-.027.72.045 1.041.208.302.137.547.372.694.668a.803.803 0 0 1-.161.898L35.19 31.16c-.602.725-1.366 1.543-2.314 2.464a24.9 24.9 0 0 1-1.643 1.428c-.462.37-.962.69-1.493.955a6.241 6.241 0 0 1-1.539.53 9.582 9.582 0 0 1-1.816.161 3.485 3.485 0 0 1-3.194-1.543 7.043 7.043 0 0 1-.798-4.065Zm.37-2.913a34.918 34.918 0 0 1 2.314-6.77 86.407 86.407 0 0 1-2.476 3.707 76.535 76.535 0 0 1-2.314 3.12c.498 0 .96-.057 1.389-.057h1.087Zm14.74-7.14a1.153 1.153 0 0 1 .903-.61 3.15 3.15 0 0 1 1.354 0c.412.087.79.291 1.088.588a.885.885 0 0 1 .162 1.06l-.313.632.209-.16a9.483 9.483 0 0 1 2.557-1.694 3.638 3.638 0 0 1 1.828-.322c.49.061.943.289 1.284.645.36.352.654.766.868 1.22a3.072 3.072 0 0 1 0 2.361 19.64 19.64 0 0 1-1.354 2.936 28.128 28.128 0 0 1-1.227 2.2 87.85 87.85 0 0 0-1.272 2.142 1.562 1.562 0 0 0-.29.771c0 .127.105.161.267.127.194-.054.38-.132.555-.23.201-.123.394-.257.579-.404a21.046 21.046 0 0 0 2.314-2.06 23.05 23.05 0 0 0 1.84-2.073 1.073 1.073 0 0 1 .902-.53c.348-.028.697.044 1.006.207a1.5 1.5 0 0 1 .671.668.859.859 0 0 1-.104.898c-.185.207-.416.518-.717.921-.3.404-.648.841-1.041 1.302-.394.46-.822.932-1.308 1.427-.486.496-.96.956-1.458 1.382a9.743 9.743 0 0 1-2.58 1.74 4.808 4.808 0 0 1-2.025.448 2.32 2.32 0 0 1-1.457-.495 3.331 3.331 0 0 1-.914-1.151 3.119 3.119 0 0 1-.128-2.303c.337-1.038.775-2.041 1.308-2.994.139-.277.312-.61.532-1.002.22-.392.428-.783.66-1.152.23-.368.439-.794.636-1.151.165-.319.35-.626.555-.922.22-.391.3-.644.266-.771-.034-.127-.15-.161-.335-.127a2.91 2.91 0 0 0-.671.23 9.909 9.909 0 0 0-.695.404c-.567.391-1.157.817-1.747 1.29-.58.455-1.132.943-1.654 1.462-.359.84-.718 1.693-1.088 2.545l-1.041 2.383c-.324.737-.59 1.37-.822 1.9-.231.53-.405.898-.509 1.152a1.715 1.715 0 0 1-1.157.944 2.511 2.511 0 0 1-1.516 0 1.873 1.873 0 0 1-1.087-.898 1.744 1.744 0 0 1 .104-1.67c.312-.702.752-1.635 1.296-2.775s1.157-2.303 1.712-3.604l1.701-3.685c.486-1.347.96-2.36 1.354-3.213v.012Zm20.26-1.323-4.42 7.715a40.475 40.475 0 0 1-1.157 2.015 15.199 15.199 0 0 0-.914 1.75 8.707 8.707 0 0 0-.474 1.347c-.093.369-.046.622.139.76a.719.719 0 0 0 .764.139c.38-.109.74-.28 1.064-.507.37-.242.752-.53 1.157-.84.405-.312.74-.634 1.064-.957l1.493-1.508c.434-.465.844-.954 1.227-1.462a1.04 1.04 0 0 1 .867-.496c.36-.027.72.045 1.042.208.301.137.546.372.694.668a.803.803 0 0 1-.162.898c-.359.46-.833 1.036-1.435 1.75-.602.714-1.365 1.509-2.314 2.43a24.926 24.926 0 0 1-1.643 1.428c-.462.37-.962.69-1.492.955a6.24 6.24 0 0 1-1.54.53c-.579.11-1.168.164-1.758.161-1.816 0-2.87-.737-3.17-2.2-.301-1.462.277-3.454 1.735-5.849.174-.322.44-.794.799-1.428.358-.633.763-1.358 1.25-2.176l1.515-2.59c.532-.922 1.041-1.82 1.539-2.707-.3.037-.601.056-.903.058h-.96c-.74 0-1.227-.15-1.435-.45a.999.999 0 0 1-.058-1.036c.224-.43.554-.794.96-1.06a3.04 3.04 0 0 1 1.54-.529H55.473l1.157-1.912a2.139 2.139 0 0 1 1.227-1.001 2.325 2.325 0 0 1 1.388 0c.389.113.72.368.926.714a1.148 1.148 0 0 1-.07 1.151l-.532.898h1.481a7.6 7.6 0 0 0 1.157 0c.533 0 .845.162.96.461a1.262 1.262 0 0 1-.115 1.002c-.202.409-.49.77-.845 1.06-.35.319-.808.5-1.284.506l-3.159.104Zm16.824 8.463a1.157 1.157 0 0 1 .925-.495c.36-.025.72.047 1.041.207.297.144.54.378.695.668a.813.813 0 0 1-.162.898c-.186.208-.417.519-.718.922-.3.402-.66.84-1.064 1.3l-1.25 1.417c-.452.487-.93.948-1.434 1.382a9.864 9.864 0 0 1-2.557 1.739 4.344 4.344 0 0 1-1.967.426 2.426 2.426 0 0 1-1.435-.53 4.822 4.822 0 0 1-1.007-1.151l-1.84 1.151a5.89 5.89 0 0 1-2.95.587 4.47 4.47 0 0 1-2.395-.633 3.735 3.735 0 0 1-1.492-1.808 5.733 5.733 0 0 1-.324-2.775 9.39 9.39 0 0 1 1.203-3.524 13.64 13.64 0 0 1 2.418-3.304 17.224 17.224 0 0 1 2.846-2.304 12.014 12.014 0 0 1 2.8-1.324 7.902 7.902 0 0 1 2.314-.426c.394-.004.785.058 1.157.184.323.12.633.27.926.45.291.177.56.39.798.633a1.965 1.965 0 0 1 1.065-.921c.463-.196.969-.271 1.47-.22.391.034.756.215 1.017.508.22.287.197.667-.08 1.151l-1.065 2.096c-.428.829-.868 1.681-1.33 2.545l-1.308 2.43c-.3.56-.628 1.106-.984 1.634a1.31 1.31 0 0 0-.242.818c0 .161.208.23.45.219.305-.037.597-.14.857-.3.355-.197.678-.445.96-.737.602-.633 1.088-1.151 1.458-1.508.441-.437.844-.911 1.204-1.416v.011Zm-7.822 1.474c.505-.622.94-1.298 1.296-2.015.306-.61.557-1.246.752-1.9.152-.504.215-1.03.185-1.555a1.272 1.272 0 0 0-.486-.978 1.357 1.357 0 0 0-1.088-.185 4.394 4.394 0 0 0-1.434.61 10.41 10.41 0 0 0-1.597 1.267c-.58.566-1.121 1.17-1.62 1.808a14.663 14.663 0 0 0-1.33 2.084 9.376 9.376 0 0 0-.776 1.877c-.15.5-.204 1.023-.161 1.543a1.376 1.376 0 0 0 .509.98 1.253 1.253 0 0 0 1.04.207 4.296 4.296 0 0 0 1.459-.576 9.136 9.136 0 0 0 1.62-1.278 14.616 14.616 0 0 0 1.631-1.889Zm7.822-1.485a28.88 28.88 0 0 0 2.314-3.04c.81-1.221 1.561-2.303 2.233-3.363a5.657 5.657 0 0 1-.984-1.934 8.254 8.254 0 0 1-.37-2.303 6.88 6.88 0 0 1 .29-2.2 3.363 3.363 0 0 1 1.156-1.658 3.863 3.863 0 0 1 2.233-.933 2.81 2.81 0 0 1 1.805.553 3.268 3.268 0 0 1 1.03 1.681 4.33 4.33 0 0 1 .139 2.188 6.065 6.065 0 0 1-.532 1.59c-.29.61-.625 1.254-1.007 1.968.473.104.962.104 1.435 0 .475-.114.973-.09 1.434.07.359.132.672.364.903.667.211.26.326.586.324.921a1.15 1.15 0 0 1-.324.83c-.139.138-.428.46-.845.944-.416.483-.914 1.094-1.47 1.773-.555.68-1.156 1.428-1.677 2.2a25.832 25.832 0 0 0-1.458 2.222c-.363.598-.665 1.23-.902 1.888-.197.542-.174.91.07 1.083a1.486 1.486 0 0 0 1.654.08c.8-.33 1.551-.768 2.233-1.3a21.06 21.06 0 0 0 2.314-1.958A21.308 21.308 0 0 0 88.39 28.2a1.345 1.345 0 0 1 .937-.449c.346-.018.69.045 1.007.184.288.136.524.363.67.645a.814.814 0 0 1-.161.898c-.706.927-1.48 1.801-2.314 2.614a19.293 19.293 0 0 1-3.24 2.706 12.75 12.75 0 0 1-3.645 1.716 4.485 4.485 0 0 1-3.47-.31c-.43-.192-.8-.495-1.07-.878a2.595 2.595 0 0 1-.47-1.3 6.536 6.536 0 0 1 .533-3.2 15.323 15.323 0 0 1 1.967-3.455 15.943 15.943 0 0 1 2.765-2.97c.182-.134.335-.303.451-.496 0-.092-.347-.276-1.088-.564a94.496 94.496 0 0 1-2.58 3.811c-.833 1.163-1.4 1.946-1.677 2.303a1.304 1.304 0 0 1-.984.553 1.568 1.568 0 0 1-.983-.242 1.477 1.477 0 0 1-.614-.714.85.85 0 0 1 .163-.886Zm6.814-12.76a.777.777 0 0 0-.67.346c-.172.272-.279.58-.313.898-.058.382-.058.77 0 1.152.069.429.214.842.428 1.22.208-.425.405-.852.579-1.278.163-.37.29-.756.381-1.151.07-.288.07-.588 0-.875a.437.437 0 0 0-.405-.311ZM97.3 19.703l-4.42 7.727a73.636 73.636 0 0 1-1.157 2.015c-.335.565-.636 1.15-.902 1.75-.2.434-.36.885-.475 1.347-.092.369 0 .622.127.76a.744.744 0 0 0 .776.139c.38-.109.74-.28 1.064-.507.37-.242.752-.53 1.157-.84.405-.312.74-.634 1.065-.957a49.647 49.647 0 0 0 1.48-1.508c.423-.464.817-.952 1.18-1.462a1.071 1.071 0 0 1 .926-.53c.36-.025.72.047 1.042.207.296.144.54.378.694.668a.813.813 0 0 1-.162.898 61.4 61.4 0 0 1-1.435 1.75c-.601.715-1.365 1.509-2.314 2.43a22.194 22.194 0 0 1-1.654 1.428c-.46.368-.956.688-1.481.956a6.328 6.328 0 0 1-1.55.53c-.58.11-1.17.164-1.76.16-1.804 0-2.857-.736-3.158-2.199-.301-1.462.278-3.454 1.724-5.85.185-.322.451-.794.798-1.427l1.25-2.177c.486-.806.983-1.67 1.516-2.59.532-.922 1.052-1.82 1.55-2.707-.3.038-.6.057-.903.058h-.96c-.752 0-1.226-.15-1.435-.449a.975.975 0 0 1 0-1.036c.22-.432.552-.798.96-1.06a3.04 3.04 0 0 1 1.54-.53H95.077l1.157-1.911c.262-.45.676-.793 1.169-.967a2.325 2.325 0 0 1 1.389 0c.384.12.713.373.925.714a1.147 1.147 0 0 1-.08 1.151l-.533.898h1.492a7.6 7.6 0 0 0 1.157 0c.533 0 .845.162.949.461a1.252 1.252 0 0 1-.104 1.002 3.334 3.334 0 0 1-.845 1.06 1.948 1.948 0 0 1-1.319.471l-3.135.127Zm8.84 8.464a1.034 1.034 0 0 1 .867-.496c.36-.027.72.045 1.042.208.301.137.546.372.694.668a.805.805 0 0 1-.162.898c-.359.46-.822 1.036-1.412 1.75a29.508 29.508 0 0 1-2.314 2.43 24.721 24.721 0 0 1-1.643 1.428c-.462.37-.962.69-1.492.955a6.251 6.251 0 0 1-1.539.53c-.58.11-1.169.164-1.759.161-1.816 0-2.87-.737-3.17-2.2-.3-1.462.278-3.454 1.736-5.849.312-.53.647-1.151 1.006-1.773.359-.622.718-1.301 1.088-1.935l1.064-1.796c.336-.564.637-1.048.88-1.44a2.17 2.17 0 0 1 1.226-.978c.44-.139.913-.139 1.354 0 .385.125.715.377.937.714.093.183.132.388.112.592-.021.204-.1.398-.228.56-.382.679-.833 1.462-1.33 2.36l-1.273 2.476a40.953 40.953 0 0 1-1.157 2.015 15.075 15.075 0 0 0-.914 1.75 8.697 8.697 0 0 0-.475 1.347c-.092.369-.046.622.14.76a.719.719 0 0 0 .763.139c.41-.107.801-.278 1.157-.507.4-.26.786-.541 1.157-.84.382-.323.74-.634 1.064-.957l1.435-1.508c.407-.468.789-.956 1.146-1.462Zm2.175-11.803a4.504 4.504 0 0 1-.706.91 9.38 9.38 0 0 1-.683.633 4.642 4.642 0 0 1-1.446.575 2.954 2.954 0 0 1-1.25.058.87.87 0 0 1-.682-.53c-.127-.276 0-.668.289-1.151.144-.28.302-.554.474-.818.22-.334.405-.645.591-.933a1.713 1.713 0 0 1 1.157-.771 2.94 2.94 0 0 1 1.388.08c.397.128.734.393.949.749a1.144 1.144 0 0 1-.081 1.198Zm-1.747 10.8a14.7 14.7 0 0 1 2.314-3.097 14.308 14.308 0 0 1 2.869-2.188 8.31 8.31 0 0 1 2.985-1.06 5.813 5.813 0 0 1 2.789.266 1.864 1.864 0 0 1 1.307 1.428 4.022 4.022 0 0 1-.301 2.038 7.59 7.59 0 0 1-1.157 2.073 10.918 10.918 0 0 1-1.446 1.508 1.66 1.66 0 0 1-1.157.426 1.89 1.89 0 0 1-1.041-.403 1.804 1.804 0 0 1-.579-.817.685.685 0 0 1 .208-.795l.903-.898c.328-.324.633-.67.914-1.037.199-.246.342-.533.416-.84 0-.23-.115-.346-.474-.346a2.514 2.514 0 0 0-1.226.392 7.247 7.247 0 0 0-1.435 1.151 14.55 14.55 0 0 0-1.493 1.67c-.513.65-.973 1.34-1.377 2.061a4.256 4.256 0 0 0-.671 2.545 2.451 2.451 0 0 0 .938 1.716 3.089 3.089 0 0 0 2.036.438 6.737 6.737 0 0 0 2.974-1.083c.459-.276.903-.575 1.33-.898.463-.357.903-.726 1.331-1.152.428-.426.821-.771 1.157-1.151.321-.327.623-.673.902-1.037a1.063 1.063 0 0 1 .857-.495c.337-.022.676.041.983.185.294.133.532.365.671.656a.89.89 0 0 1-.116.933c-.26.376-.542.738-.844 1.082-.359.403-.764.84-1.227 1.301-.463.46-.948.91-1.458 1.37a20.11 20.11 0 0 1-1.573 1.279 9.564 9.564 0 0 1-3.17 1.693c-.991.298-2.02.45-3.055.449a6.972 6.972 0 0 1-2.557-.484 3.76 3.76 0 0 1-1.643-1.152 4.343 4.343 0 0 1-.879-1.83 6.718 6.718 0 0 1-.151-1.97c.047-.698.172-1.39.37-2.06.184-.65.445-1.277.776-1.866Zm29.897 1.003a1.154 1.154 0 0 1 .926-.496c.36-.026.72.046 1.041.208.301.137.546.372.694.668a.811.811 0 0 1-.162.898c-.173.207-.416.518-.717.921s-.659.84-1.064 1.301c-.405.46-.845.933-1.308 1.428-.452.487-.931.948-1.434 1.382a9.893 9.893 0 0 1-2.534 1.739 4.348 4.348 0 0 1-1.967.426 2.427 2.427 0 0 1-1.435-.53 4.823 4.823 0 0 1-1.007-1.151l-1.839 1.151a5.893 5.893 0 0 1-2.951.587 4.47 4.47 0 0 1-2.395-.633 3.783 3.783 0 0 1-1.492-1.808 5.74 5.74 0 0 1-.313-2.775 9.18 9.18 0 0 1 1.157-3.524 13.685 13.685 0 0 1 2.43-3.304 16.31 16.31 0 0 1 2.846-2.304 11.731 11.731 0 0 1 2.789-1.324 7.905 7.905 0 0 1 2.314-.426c.393-.006.784.057 1.157.184.325.122.639.272.937.45.332.18.642.396.926.644.225-.43.605-.758 1.064-.92a2.928 2.928 0 0 1 1.4-.22c.392.031.758.213 1.018.507.232.288.197.668-.081 1.151-.277.484-.636 1.267-1.064 2.096-.428.83-.868 1.681-1.331 2.545-.463.864-.891 1.67-1.307 2.43a16.186 16.186 0 0 1-.984 1.67c-.208.391-.289.656-.231.817.058.161.197.23.451.219.3-.037.588-.14.845-.3.355-.197.678-.445.96-.736.602-.634 1.088-1.152 1.458-1.509.447-.449.849-.939 1.203-1.462Zm-7.821 1.485a11.257 11.257 0 0 0 2.106-3.938c.15-.5.212-1.022.185-1.543a1.317 1.317 0 0 0-.475-.979 1.375 1.375 0 0 0-1.157-.184c-.51.118-.996.325-1.434.61a10.38 10.38 0 0 0-1.597 1.267 19.538 19.538 0 0 0-1.62 1.808 15.924 15.924 0 0 0-1.331 2.095 9.38 9.38 0 0 0-.775 1.877 4.126 4.126 0 0 0-.15 1.543 1.377 1.377 0 0 0 .497.979 1.28 1.28 0 0 0 1.042.208 4.306 4.306 0 0 0 1.458-.576 9.64 9.64 0 0 0 1.631-1.278 15.485 15.485 0 0 0 1.62-1.889Z"/></g><defs><clipPath id="a"><path fill="#fff" d="M0 0h140v38H0z"/></clipPath></defs></svg>